<svg version="1.2" xmlns="http://www.w3.org/2000/svg" viewBox="0 0 200 156" width="200" height="156"><defs><clipPath clipPathUnits="userSpaceOnUse" id="cp1"><path d="m-1752-88h2028v2976h-2028z"/></clipPath></defs><style>.a{fill:#fff}</style><g clip-path="url(#cp1)"><path fill-rule="evenodd" class="a" d="m46.7 49.5v27.7h-46.1v-10.2h35.2v-16.8c0-8.2-3.8-12.3-12.7-12.3h-13.6v-10.1h16.1c14.7 0 21.1 7.8 21.1 21.7zm-25.5-34.1c-3.3 0-6-2.6-6-6 0-3.3 2.7-6 6-6 3.3 0 6 2.7 6 6 0 3.4-2.7 6-6 6zm95.9 0c-3.3 0-5.9-2.6-5.9-6 0-3.3 2.6-6 5.9-6 3.3 0 6 2.7 6 6 0 3.4-2.7 6-6 6zm53.4 0c-3.3 0-5.9-2.6-5.9-6 0-3.3 2.6-6 5.9-6 3.3 0 6 2.7 6 6 0 3.4-2.7 6-6 6zm-5.4 12.4h10.9v49.4h-98.9c-14.6 0-19.2-5.8-19.2-19.3v-54.3h11v55.5c0 5.7 2.4 7.9 7.7 7.9h16.7v-16.8c0-14.2 6.5-22.4 21.4-22.4h23.7v39.2h26.7zm-37.7 10.2h-10.4c-9 0-12.8 4.4-12.8 13.2v15.9h23.2zm70.6-34.3v73.6h-10.9v-73.6zm-144 127.2v21.6h-8.5v-21.9c0-5.7-2.3-8.1-8.1-8.1h-9v30h-8.5v-36.9h18.9c10.5 0 15.2 4.7 15.2 15.3zm21.6-28.7h9.2v6.7h-7.2c-3.2 0-4.3 1.2-4.3 4.4v2.3h11.5v6.8h-11.5v30.1h-8.5v-30.1h-5.8v-6.8h5.8v-2.5c0-7.7 3.1-10.9 10.8-10.9zm46.2 27.7v22.6h-22.2c-7.2 0-11.6-4.4-11.6-11.6 0-7.3 4.4-11.6 11.6-11.6h13.7v-0.9c0-4.5-1.5-6-6-6h-17v-6.8h17.2c10.1 0 14.3 4.1 14.3 14.3zm-20.2 6.1q-4.9 0-4.9 4.9c0 3.2 1.6 4.9 4.9 4.9h11.8v-9.8zm39.4-20.4h12.5v6.8h-12.5v18.9c0 3.3 1.2 4.4 4.4 4.4h8.1v6.8h-10.1c-7.7 0-10.8-3.2-10.8-10.9v-19.2h-5.8v-6.8h5.8v-9.5h8.4zm57 15.2v21.7h-8.5v-21.9c0-5.7-2.3-8.1-8.1-8.1h-8.6v30h-8.5v-50.3h8.5v13.4h10c10.5 0 15.2 4.7 15.2 15.2zm-188.9-28.6v50h-8.5v-50zm188.9-12.6v3.3h-10.9v-3.3h2.1v-2.4c0-3 1.6-4.6 4.5-4.6h2.8v3.3h-2.3c-1.2 0-1.6 0.3-1.6 1.4v2.3z"/></g></svg>